<svg xmlns="http://www.w3.org/2000/svg" width="16" height="16">
  <path
    d="M7.128 14.813a1.157 1.157 0 0 1-.28-.05c-.357-.106-.673-.392-.792-.716-.056-.153-.052-.03-.055-1.596-.002-.987-.005-1.42-.012-1.42-.005 0-.591.303-1.303.674-.713.371-1.308.681-1.324.688a1.475 1.475 0 0 1-.398.106 1.44 1.44 0 0 1-.656-.093 1.13 1.13 0 0 1-.494-.37 34.214 34.214 0 0 1-.735-1.154c-.1-.203-.13-.43-.086-.653.03-.146.106-.318.197-.442.06-.08.209-.214.304-.27.042-.026.653-.35 1.358-.718l1.287-.677c.004-.003-.578-.312-1.293-.688-.715-.375-1.33-.7-1.365-.722-.248-.154-.42-.4-.485-.694a1.202 1.202 0 0 1-.004-.42c.021-.09.067-.213.105-.282.048-.085.673-1.059.723-1.125.14-.184.352-.325.599-.398.154-.046.249-.06.415-.06.275.002.412.044.807.252l.487.255 1.09.567c.42.22.769.4.773.4.005 0 .008-.561.008-1.39 0-1.507-.002-1.443.047-1.6.086-.273.349-.551.647-.684.256-.114.315-.12 1.235-.115.734.004.74.004.913.057.195.059.344.147.508.302.169.16.26.313.32.538.014.055.016.146.02 1.478l.004 1.419 1.264-.66c.694-.362 1.301-.677 1.348-.698.216-.1.448-.14.679-.117.379.038.689.199.885.46.054.072.655 1.005.71 1.103.174.307.178.668.012.997-.078.155-.232.32-.388.416-.043.026-.656.35-1.362.721-.707.37-1.288.677-1.292.68-.004.003.555.3 1.242.661.686.36 1.283.674 1.326.698.314.17.502.415.572.747a.989.989 0 0 1-.11.716c-.05.088-.669 1.05-.72 1.118a1.264 1.264 0 0 1-.126.133c-.171.156-.39.257-.66.302a1.687 1.687 0 0 1-.43 0c-.194-.035-.27-.066-.708-.296l-1.642-.857-.6-.312-.004 1.42c-.004 1.326-.006 1.423-.02 1.478a1.14 1.14 0 0 1-.216.43c-.03.037-.097.104-.15.15a1.232 1.232 0 0 1-.618.297c-.082.015-.124.016-.78.018-.382.001-.732 0-.777-.004z"/>
</svg>
