<svg xmlns="http://www.w3.org/2000/svg" viewBox="0 0 16 16">
  <path
    d="M9.637 15.934c-.22-.08-.298-.217-.298-.53v-.277l-3.016-.01-3.016-.01-.292-.091c-.357-.112-.657-.307-.825-.534l-.125-.17-.014-5.348-.013-5.348h-.73c-.811 0-.996-.033-1.148-.204-.08-.09-.088-.247-.088-1.582C.072.207.063.253.382.143c.227-.078 5.73-.077 5.956 0 .308.107.309.114.309 1.722 0 1.434-.002 1.468-.108 1.557-.2.17-.343.194-1.132.194h-.728v.9l2.317-.01 2.317-.008.026-.318c.024-.293.038-.326.178-.423l.152-.106h5.92l.132.082a.55.55 0 0 1 .189.216c.08.194.07 2.756-.012 2.915a.543.543 0 0 1-.237.198l-.176.08h-2.843c-3.118 0-3.062.003-3.225-.207-.05-.066-.078-.198-.078-.38v-.278H4.628v2.661h4.711v-.31c0-.297.007-.314.16-.431l.161-.123h5.929l.136.091c.075.05.16.147.188.216.078.186.064 2.753-.015 2.906a.543.543 0 0 1-.237.199l-.176.079h-2.843c-3.118 0-3.062.003-3.224-.206-.052-.066-.079-.199-.079-.38v-.278h-4.66v2.66h4.66v-.308c0-.28.012-.317.134-.414l.134-.107h6.044l.106.076a.547.547 0 0 1 .157.199c.077.184.062 2.752-.016 2.904a.543.543 0 0 1-.237.198l-.176.08-2.853-.002c-2.422-.001-2.874-.01-2.995-.053zm5.035-1.691v-.917l-2.007.01-2.006.008-.014.864c-.007.475-.002.883.012.907.02.034.456.044 2.02.044h1.995zm-5.281.02c0-.373-.013-.448-.082-.465-.045-.012-1.22-.021-2.612-.021h-2.53l-.08-.077c-.07-.067-.08-.284-.08-1.669 0-1.384.01-1.601.08-1.668l.08-.077H9.343l-.014-.458-.015-.458-2.563-.008c-2.54-.008-2.563-.01-2.653-.082-.083-.067-.09-.2-.09-1.668 0-1.388.01-1.606.08-1.673l.08-.076h5.224V4.93H4.168l-.081-.077c-.065-.062-.08-.188-.08-.657v-.58H2.711v5.435c.001 2.989.016 5.47.033 5.513.021.053.084.087.18.1.083.01.15.03.15.041 0 .012 1.42.018 3.158.013l3.158-.01zm5.332-4.443v-.916h-4.09v1.831h4.09zm-.103-4.424v-.881h-3.987v1.762h3.987zM5.392 1.862l-.014-.89L3.372.965 1.366.954v.88c0 .67.015.882.065.895.035.01.944.02 2.02.02l1.955.003z"/>
</svg>
