<svg xmlns="http://www.w3.org/2000/svg" viewBox="0 0 16 16">
  <path
    d="M6.873 15.967a8.737 8.737 0 0 1-3.447-1.37c-.655-.445-1.546-1.336-1.99-1.992C.93 11.86.416 10.723.213 9.901c-.238-.966-.257-2.67-.04-3.609A8.135 8.135 0 0 1 6.286.178C7.23-.039 8.933-.02 9.894.217a8.404 8.404 0 0 1 3.781 2.137 8.418 8.418 0 0 1 2.137 3.782c.254 1.022.254 2.743 0 3.765a8.418 8.418 0 0 1-2.137 3.782c-.996.997-2.41 1.8-3.74 2.124-.776.19-2.358.272-3.062.16zm2.86-1.158c2.766-.762 4.74-2.932 5.187-5.702.12-.743.06-2.141-.122-2.81-.746-2.754-2.93-4.742-5.698-5.188-.743-.12-2.14-.06-2.809.122-2.753.746-4.74 2.93-5.187 5.7-.12.742-.06 2.14.122 2.809.72 2.656 2.736 4.57 5.421 5.147.682.147 2.43.102 3.086-.078zm-2.444-2.856v-.883h1.686v1.766H7.29zm.014-2.432c.045-1.035.244-1.373 1.428-2.426.497-.441.957-.908 1.024-1.036.195-.375.104-1.038-.184-1.342-.31-.326-.568-.453-1.054-.517-.88-.117-1.774.419-2.03 1.216-.055.173-.123.34-.15.37-.028.031-.421.016-.874-.033l-.823-.09V5.44c0-.767.824-1.88 1.714-2.318.68-.334 1.61-.465 2.443-.344.938.137 1.476.37 2.024.878.636.589.906 1.14.91 1.859.005.942-.334 1.484-1.643 2.627-.437.38-.851.804-.922.94-.07.137-.147.46-.17.717l-.043.469H7.27z"/>
</svg>
