<svg xmlns="http://www.w3.org/2000/svg" width="16" height="16"><path d="M.517 15.83c-.144-.104-.292-.32-.377-.549-.133-.357-.14-.55-.12-3.638.019-3.142.025-3.27.167-3.495.311-.494.488-.582 1.233-.611l.691-.027 2.592-3.068 2.592-3.068-.043-.31c-.05-.356.09-.75.34-.957.208-.173.694-.17.905.006.224.187.38.655.33.99-.04.262.04.37 2.55 3.339L13.97 7.51l.692.027c.745.03.922.117 1.233.61.142.226.148.355.168 3.471.024 3.663.01 3.784-.473 4.174l-.26.21H8.042c-7.19 0-7.291-.003-7.525-.172zm14.885-.63l.176-.208v-6.38l-.209-.249-.209-.248H.921l-.208.248-.209.248v6.38l.175.21.176.207h14.372zM1.72 13.564a1.386 1.386 0 0 1-.41-.437c-.147-.26-.163-.388-.163-1.315 0-1.237.09-1.51.593-1.818.265-.162.383-.188.634-.138.412.083.866.6.832.947-.036.367-.242.348-.553-.051-.293-.377-.407-.412-.715-.223-.27.166-.29.255-.29 1.286 0 .829.01.901.174 1.095.111.132.257.209.397.209.212 0 .571-.312.571-.496 0-.132.226-.193.33-.09.233.23-.002.801-.429 1.042a.933.933 0 0 1-.971-.011zm1.975.092c-.09-.108-.055-3.633.038-3.743.113-.134.168-.128.302.032.094.11.113.384.113 1.65v1.517l.617.025c.647.025.817.129.718.436-.038.118-.174.14-.893.14-.466 0-.869-.026-.895-.057zm2.468-.085c-.459-.268-.548-.537-.574-1.724-.022-.994-.013-1.079.143-1.35.263-.458.512-.633.9-.633.38 0 .689.179.909.527.122.194.146.384.166 1.328.021 1.039.013 1.12-.145 1.4-.308.546-.907.74-1.399.452zm.881-.66c.165-.196.175-.263.173-1.124-.002-.959-.04-1.098-.344-1.29-.208-.132-.462-.062-.652.18-.127.161-.145.297-.145 1.105 0 .864.011.933.176 1.128.11.132.257.209.396.209.14 0 .286-.077.396-.209zm1.526.62c-.263-.18-.493-.546-.493-.783 0-.073.063-.173.14-.222.113-.071.172-.054.287.082.08.094.144.203.144.243 0 .107.337.268.562.268.233 0 .51-.278.51-.512 0-.255-.256-.506-.518-.508-.353-.002-.818-.29-.98-.608-.594-1.155.837-2.214 1.718-1.273.252.27.31.665.117.811-.108.082-.164.045-.366-.24-.207-.291-.28-.338-.528-.338-.496 0-.767.497-.453.834.073.078.312.177.531.22.646.124.979.502.979 1.109 0 .854-.964 1.39-1.65.917zm2.057.127c-.092-.109-.058-3.633.036-3.745.056-.066.35-.102.848-.102.803 0 .964.07.91.4-.02.13-.115.155-.684.176l-.66.024V11.5l.518.025c.485.023.52.038.542.227.033.276-.09.346-.613.348h-.447v1.018l.59.001c.666.002.79.06.756.348-.024.199-.039.203-.885.226-.474.013-.884-.003-.911-.035zm2.208-.08c-.024-.074-.043-.909-.043-1.855 0-2.003-.012-1.967.613-1.88.935.131 1.532.888 1.528 1.937-.004 1.094-.727 1.932-1.667 1.932-.288 0-.399-.034-.431-.134zm1.019-.635c.382-.258.534-.55.566-1.093.023-.387-.002-.521-.14-.762a1.391 1.391 0 0 0-.792-.644l-.196-.057v1.366c0 1.334.003 1.366.15 1.366.084 0 .269-.08.412-.176zM10.845 4.66l-2.41-2.862h-.788L5.237 4.66l-2.41 2.862h10.428zM8.303 1.037c.099-.257-.02-.469-.262-.469a.345.345 0 0 0-.252.13c-.14.2.02.549.252.549.124 0 .207-.067.262-.21z"/></svg>