<svg xmlns="http://www.w3.org/2000/svg" width="16" height="16">
  <path
    d="M2.523 15.88a3.425 3.425 0 0 1-1.268-.567c-.301-.206-.568-.51-.684-.78l-.056-.128L.51 11.04c-.004-2.396.001-3.4.018-3.484.043-.223.273-.55.545-.778.232-.194.567-.403.789-.492.256-.103.675-.234.838-.261.076-.013.378-.029.691-.036l.557-.012-.012.042c-.007.022-.019.26-.027.527l-.014.485-.458.005-.457.006-.24.1c-.285.12-.462.247-.619.446l-.104.132v6.506l.091.117c.2.253.439.407.851.546l.156.052h9.511l.22-.077c.38-.13.57-.26.78-.524l.093-.118v-3.246l-.002-3.246-.118-.147a1.368 1.368 0 0 0-.546-.416c-.32-.138-.453-.159-1.156-.18l-.405-.012.013-.195c.007-.107.013-.332.014-.5v-.305l.559.012c.856.017 1.037.04 1.502.195.327.108.45.165.688.314.404.255.644.487.834.804.114.19.123.26.143 1.03.023.928.023 4.348 0 5.278-.02.805-.027.852-.156 1.06a1.958 1.958 0 0 1-.637.664 3.52 3.52 0 0 1-1.107.517l-.222.065-5.206.004-5.206.003z"/>
  <path
    d="M6.723 13.43c-.91-.213-1.72-.947-2.071-1.877a3.757 3.757 0 0 1-.108-.31c0-.013.075.066.168.176.096.113.322.309.527.455.493.355.464.343.722.3.562-.093.881-.35 1.152-.926.256-.544.268-.742.272-4.655l.003-3.21-.361.017c-.506.023-.903.02-.928-.006C6.072 3.365 8.626.2 8.664.214c.015.005.602.726 1.305 1.602l1.277 1.591-.719-.012-.718-.012-.02.69c-.01.378-.03 2.004-.042 3.612-.012 1.608-.034 3.075-.047 3.26-.031.422-.121.704-.382 1.199-.362.689-.905 1.148-1.524 1.288-.266.06-.81.06-1.07-.001z"/>
</svg>
