<svg xmlns="http://www.w3.org/2000/svg" width="16" height="16">
  <path
    d="M2.523 15.88a3.425 3.425 0 0 1-1.268-.567c-.301-.206-.568-.51-.684-.78l-.056-.128L.51 11.04c-.004-2.396.001-3.4.018-3.484.043-.223.273-.55.545-.778.232-.194.567-.403.789-.492.256-.103.675-.234.838-.261.076-.013.378-.029.691-.036l.557-.012-.012.042c-.007.022-.019.26-.027.527l-.014.485-.458.005-.457.006-.24.1c-.285.12-.462.247-.619.446l-.104.132v6.506l.091.117c.2.253.439.407.851.546l.156.052h9.511l.22-.077c.38-.13.57-.26.78-.524l.093-.118v-3.246l-.002-3.246-.118-.147a1.368 1.368 0 0 0-.546-.416c-.32-.138-.453-.159-1.156-.18l-.405-.012.013-.195c.007-.107.013-.332.014-.5v-.305l.559.012c.856.017 1.037.04 1.502.195.327.108.45.165.688.314.404.255.644.487.834.804.114.19.123.26.143 1.03.023.928.023 4.348 0 5.278-.02.805-.027.852-.156 1.06a1.958 1.958 0 0 1-.637.664 3.52 3.52 0 0 1-1.107.517l-.222.065-5.206.004-5.206.003z"/>
  <path
    d="M9.182.305c.914.2 1.735.921 2.1 1.846.063.157.113.295.114.308 0 .013-.077-.065-.172-.173a3.493 3.493 0 0 0-.533-.448c-.5-.346-.47-.335-.727-.288-.56.102-.876.363-1.138.944-.247.548-.256.746-.199 4.658l.047 3.21.361-.023c.506-.031.902-.035.928-.008.027.028-2.477 3.233-2.515 3.22a72.148 72.148 0 0 1-1.33-1.581l-1.302-1.572h.72l.718.002.009-.69c.004-.379-.002-2.005-.015-3.613-.012-1.608-.014-3.075-.003-3.26.024-.422.11-.705.362-1.205C6.958.938 7.495.47 8.111.32A3.169 3.169 0 0 1 9.182.305z"/>
</svg>
