<svg xmlns="http://www.w3.org/2000/svg" viewBox="0 0 333.333 333.333"><defs><linearGradient id="b"><stop offset="0" stop-color="#fff"/><stop offset="1" stop-color="#fff" stop-opacity="0"/></linearGradient><linearGradient id="a"><stop offset="0"/><stop offset="1" stop-opacity="0"/></linearGradient></defs><path d="M43.833 255.275c-20.93-33.066-38.055-61.759-38.055-63.763 0-5.608 17.891-32.476 21.625-32.476 3.905 0 79.417 118.13 79.417 124.238 0 5.927-17.542 32.12-21.511 32.12-2.18 0-17.224-21.805-41.476-60.119zm79.634 1.345C100.08 219.668 86.269 195.86 86.269 192.5c0-6.12 16.822-33.465 20.586-33.465 1.373 0 15.027 19.697 30.341 43.77l27.845 43.772 73.263-115.211C278.599 68 312.194 16.156 312.96 16.156c3.129 0 20.048 25.464 21.036 31.66.952 5.972-7.666 20.42-81.794 137.127-65.74 103.501-83.756 130.452-87.199 130.452-3.374 0-12.614-13.075-41.536-58.775zm29.963-79.472c-4.913-7.831-8.933-16.05-8.933-18.266 0-4.024 87.157-142.726 89.686-142.726 2.129 0 21.632 30.162 21.632 33.454 0 4.613-87.881 141.776-90.837 141.776-1.439 0-6.635-6.407-11.548-14.238z"/><text x="5.34" y="58.027" transform="scale(.7329 1.36446)" font-size="63.778" stroke-width="5.315"><tspan x="5.34" y="58.027">Taskana</tspan></text><flowRoot xml:space="preserve"><flowRegion><path d="M-64.918-13.229H514.35v435.45H-64.918z"/></flowRegion><flowPara/></flowRoot></svg>