<svg xmlns="http://www.w3.org/2000/svg" width="16" height="16"><path d="M5.622 15.86c-.279-.151-.432-.49-.482-1.069l-.044-.504-1.554-2.058C1.9 10.052 1.777 9.835 1.88 9.27c.102-.56.59-1.024 1.161-1.103.403-.055.773.072 1.117.383l.274.249.002-2.41c.001-2.717.012-2.783.533-3.214.442-.365 1.218-.435 1.576-.142.066.055.089.029.089-.103 0-.224.245-.587.575-.854.582-.47 1.5-.297 1.916.36.113.178.205.386.205.46 0 .11.033.128.16.089.622-.19.884-.19 1.266.003.417.21.772.807.773 1.3 0 .132.027.157.125.117.365-.15.599-.18.857-.11.42.113.74.363.916.713.156.309.16.374.16 2.598 0 2.41-.085 3.537-.35 4.634-.154.637-.452 1.473-.613 1.72-.058.088-.14.425-.185.748-.095.7-.202.938-.505 1.123-.216.132-.374.14-3.172.137-2.466-.002-2.976-.02-3.139-.109zm5.932-.624c.068-.052.136-.307.185-.688.05-.388.142-.725.256-.942.273-.515.517-1.29.678-2.154.124-.667.15-1.167.182-3.389.027-1.936.014-2.646-.048-2.764-.047-.087-.194-.204-.327-.26-.21-.088-.275-.088-.485 0-.134.056-.278.167-.32.246-.046.087-.076.64-.076 1.414 0 1.034-.02 1.299-.11 1.428-.125.177-.464.215-.588.065-.05-.06-.084-.819-.098-2.169l-.02-2.077-.186-.186c-.333-.333-.966-.206-1.13.227-.037.099-.068 1.073-.068 2.166v1.986l-.177.117c-.165.108-.19.108-.355 0l-.178-.117V5.73c0-1.324-.02-2.508-.044-2.63-.108-.542-.727-.763-1.14-.407l-.2.171-.02 2.618c-.012 1.603-.047 2.65-.09 2.703-.142.171-.36.168-.536-.007l-.17-.17V6.006c0-1.297-.026-2.051-.076-2.145-.1-.188-.476-.341-.722-.294-.108.02-.276.132-.373.248l-.176.21v2.811c0 1.801-.027 2.86-.074 2.948-.143.269-.428.174-.886-.294-.667-.681-.982-.784-1.376-.451-.18.151-.219.237-.219.48 0 .24.058.37.305.688.167.215.886 1.161 1.596 2.103l1.292 1.712.046.554c.029.334.088.594.15.657.088.088.522.103 2.787.095 1.916-.007 2.714-.033 2.791-.092zM.118 4.356c-.12-.12-.106-.774.027-1.292C.59 1.34 2.276-.042 3.936-.042c.427 0 .567.08.567.325 0 .233-.157.321-.695.39C2.164.878.896 2.137.763 3.693c-.02.235-.082.5-.137.587-.108.174-.37.213-.508.075zm1.475-.023c-.134-.162-.045-.881.167-1.345.365-.8 1.25-1.44 2.1-1.516.479-.044.643.035.643.308 0 .216-.226.355-.668.411-.854.109-1.602.947-1.602 1.795 0 .128-.05.282-.112.344-.142.142-.412.144-.528.003zm12.354.043c-.055-.035-.124-.244-.154-.464-.126-.93-.762-1.614-1.597-1.72-.442-.057-.668-.196-.668-.412 0-.273.164-.352.643-.308.85.077 1.696.685 2.076 1.491.225.477.327 1.206.191 1.37-.1.12-.337.14-.491.043zm1.458-.095c-.055-.088-.119-.356-.142-.597-.15-1.57-1.397-2.805-3.04-3.012-.538-.068-.695-.156-.695-.389 0-.245.14-.325.567-.325.793 0 1.694.353 2.429.954.481.393 1.044 1.214 1.256 1.831.194.567.275 1.436.148 1.59-.133.16-.408.134-.523-.052z"/></svg>