<svg xmlns="http://www.w3.org/2000/svg" viewBox="0 0 1000 1000">
  <path
    d="M295.82 15.17c-62.83 16.41-109.69 62.62-129.77 128.04-4.97 16.84-5.61 22.46-5.61 50.31s.65 33.47 5.61 50.31c11.01 35.84 26.56 61.32 53.12 86.16 13.6 12.96 22.24 18.79 39.52 27.21 31.74 15.55 45.99 18.79 83.78 18.79 33.04 0 45.56-2.16 71.69-12.74 27.64-11.23 58.3-35.2 76.22-59.6 11.01-14.9 23.75-41.67 29.58-61.54 6.91-24.83 7.13-72.33 0-96.73C500.1 76.07 449.57 27.49 382.42 13.23c-23.77-4.97-62.85-4.11-86.6 1.94zM178.35 419.38c-56.79 14.9-91.12 45.77-102.56 91.77-4.75 19-6.69 91.77-3.46 128.91 3.24 35.41 8.42 56.79 19.87 80.11 8.21 16.84 9.5 18.35 19.86 23.1 13.39 6.05 38 10.58 84.64 15.33 26.99 2.81 57.44 3.67 140.35 3.67 58.3.22 115.3-.65 126.96-1.51 19.87-1.73 20.94-2.16 20.94-6.91 0-11.88 11.66-48.8 22.24-71.04 20.3-42.1 49.45-74.93 88.75-100.19l19-12.31-1.08-23.75c-3.02-57.43-23.1-90.9-67.15-112.28-16.63-8.2-55.71-20.51-64.78-20.51-1.51 0-5.61 6.05-9.29 13.39-3.67 7.56-15.98 25.05-27.21 39.08-28.07 34.33-44.26 57.22-61.97 87.02-12.5 20.94-15.09 24.18-15.96 20.07-4.75-20.3-12.09-68.45-12.09-77.73 0-14.68 4.53-24.4 21.38-47.07 13.17-17.92 16.19-26.78 9.72-29.15-1.94-.65-22.02-1.3-44.91-1.3-54.41 0-55.28.87-33.04 30.45 24.83 32.82 25.26 34.98 15.98 87.66-3.67 21.81-7.34 39.51-7.99 39.51-.65 0-5.18-6.48-9.72-14.68-15.76-27.21-41.67-64.13-64.78-92.2-12.52-15.55-25.69-34.12-29.37-41.67-4.32-8.85-7.77-13.39-10.15-13.39-1.94.22-12.95 2.6-24.18 5.62zM700.89 588.88c-7.77 1.08-22.24 4.32-32.39 7.56-68.02 21.16-115.95 71.25-136.46 142.73-6.91 23.97-6.91 75.57 0 101.05 19.22 69.96 71.47 122.65 142.94 144.02 18.35 5.61 63.05 7.56 85.5 3.89 53.77-8.64 103.64-40.38 134.09-85.29 47.07-69.74 46.21-162.81-2.38-230.61-18.57-26.34-51.17-53.33-79.67-66.29-35.62-16.2-73.84-22.03-111.63-17.06zm55.28 76.22c13.6 6.26 26.78 19.22 33.47 33.25 4.1 8.21 5.18 14.68 5.83 34.98.87 24.83.87 25.05 6.7 27.64 3.45 1.51 7.13 5.18 8.42 8.21 3.67 7.56 3.67 122.43 0 128.91-5.18 9.93-5.4 9.93-83.35 10.15h-74.06l-5.18-5.4-5.4-5.18V769.84l5.4-5.18c2.81-3.02 6.69-5.4 8.64-5.4 2.81 0 3.24-3.67 3.24-22.67 0-17.06 1.08-25.26 4.1-33.47 14.24-37.37 55.91-54.64 92.19-38.02z"/>
  <path
    d="M709.31 699.65c-10.8 7.34-14.9 18.57-14.9 41.24v18.35h66.94v-19c0-15.76-.87-20.73-4.97-28.5-9.07-17.06-31.31-22.67-47.07-12.09zM715.57 792.93c-7.13 3.67-12.52 13.38-12.52 21.81 0 5.61 4.75 15.11 9.07 17.92.86.65 1.73 10.36 2.16 21.38.65 19 1.08 20.51 6.26 24.61 3.67 2.59 7.34 3.67 10.37 2.59 9.5-3.02 11.01-6.69 11.01-27.85 0-17.27.65-20.51 4.32-23.97 6.26-5.61 7.56-16.41 3.24-25.69-6.27-13.18-21.17-17.93-33.91-10.8z"/>
</svg>
