<svg xmlns="http://www.w3.org/2000/svg" viewBox="0 0 16 16">
  <path
    d="M13.327.011H2.68A2.666 2.666 0 0 0 .017 2.674v7.989a2.665 2.665 0 0 0 2.662 2.662h2.386l2.467 2.469a.662.662 0 0 0 .942 0l2.467-2.469h2.386a2.665 2.665 0 0 0 2.662-2.662v-7.99A2.666 2.666 0 0 0 13.327.012zm1.33 10.652c0 .733-.596 1.332-1.331 1.332h-2.66l-.034.001h-.01l-.023.002-.016.002-.016.001-.02.004-.013.001-.02.005c-.003.002-.008.002-.011.003l-.02.005c-.003.002-.008.002-.01.004-.007.001-.014.003-.019.006l-.013.005-.016.006-.015.005-.015.007-.014.006-.013.007-.017.008-.013.007a.143.143 0 0 1-.016.01l-.013.008-.015.01-.013.01-.013.009a.114.114 0 0 0-.016.013l-.01.008-.023.02-.001.001c-.01.008-.018.017-.026.025l-2.189 2.188-2.19-2.19-.026-.024-.002-.002-.023-.02-.01-.006c-.004-.005-.011-.008-.016-.013l-.013-.01-.013-.01-.015-.01-.013-.008a.051.051 0 0 0-.016-.008c-.005-.001-.008-.005-.013-.006-.005-.004-.01-.005-.016-.008l-.013-.007-.015-.006-.015-.007-.013-.005-.016-.006-.013-.005-.018-.007c-.003-.001-.008-.001-.011-.003l-.02-.005c-.003-.002-.008-.002-.011-.003l-.02-.005c-.005-.002-.008-.002-.013-.002l-.02-.003-.016-.002L5.407 12l-.023-.002h-.01l-.034-.002H2.68a1.333 1.333 0 0 1-1.332-1.332V2.675c0-.733.597-1.332 1.332-1.332h10.647c.733 0 1.331.597 1.331 1.332z"/>
  <path
    d="M11.996 3.34H4.01a.665.665 0 1 0 0 1.331h7.986a.666.666 0 0 0 0-1.33zM4.01 7.335h4.658a.666.666 0 0 0 0-1.33H4.01a.665.665 0 1 0 0 1.33zM10.664 8.666H4.01a.665.665 0 1 0 0 1.33h6.654a.666.666 0 0 0 0-1.33z"/>
</svg>
