<svg xmlns="http://www.w3.org/2000/svg" viewBox="0 0 16 16">
  <path
    d="M10.674 12.061v-.824c.974-.62 1.769-2.166 1.769-3.712 0-2.482 0-4.495-2.653-4.495-2.654 0-2.654 2.013-2.654 4.495 0 1.546.795 3.092 1.77 3.712v.824c-3 .277-5.307 1.942-5.307 3.955H15.98c0-2.013-2.307-3.678-5.307-3.955z"/>
  <path
    d="M4.583 12.447c.764-.564 1.714-.993 2.76-1.255a5.714 5.714 0 0 1-.56-.921 6.306 6.306 0 0 1-.642-2.746c0-1.343 0-2.611.423-3.648.41-1.007 1.149-1.631 2.2-1.865C8.532.818 7.91.033 6.253.033c-2.653 0-2.653 2.013-2.653 4.495 0 1.546.794 3.092 1.769 3.712v.824C2.368 9.341.06 11.006.06 13.02h3.856c.2-.201.422-.393.666-.572z"/>
</svg>
