<svg xmlns="http://www.w3.org/2000/svg" viewBox="0 0 16 16"><path d="M2.673 15.988l-.108-.104v-3.745l.135-.23c.736-1.247 2.138-3.517 2.19-3.546a.977.977 0 0 1 .273-.053l.206-.015.016-2.016c.012-1.539.026-2.03.056-2.082.102-.174-.143-.164 3.898-.164 3.155 0 3.731.007 3.805.044.183.092.179.041.188 2.225l.008 2.008h.188c.211 0 .328.04.392.136.061.09 2 3.43 2.079 3.583.066.125.066.151.058 2.005l-.008 1.88-.104.09-.104.09H2.781zm8.955-3.332c0-.46.03-.591.162-.699l.096-.078h1.567c.984 0 1.565-.011 1.565-.03 0-.048-1.614-2.815-1.648-2.826-.02-.007-.031.29-.031.815 0 .454-.01.878-.02.942a.408.408 0 0 1-.297.31.432.432 0 0 1-.364-.133c-.063-.068-.064-.124-.08-3.135l-.016-3.065-3.207-.008-3.209-.009L6.138 7.8c-.009 3.051-.009 3.06-.074 3.146a.39.39 0 0 1-.587.022l-.076-.078-.009-.939c-.007-.666-.02-.934-.045-.927-.028.01-1.68 2.702-1.728 2.816-.012.03.312.039 1.554.039h1.57l.097.078c.13.108.16.238.16.698v.393h4.628v-.393zm-5-2.661c-.022-.02-.039-.08-.039-.132 0-.053.017-.112.038-.133.056-.053 5.32-.053 5.374 0 .05.048.05.217 0 .265-.054.053-5.318.053-5.374 0zm.032-1.118c-.093-.063-.099-.243-.01-.29.085-.044 5.243-.044 5.329 0 .088.047.083.227-.01.29-.107.072-5.203.072-5.309 0zm-.033-1.25c-.02-.021-.038-.08-.038-.133 0-.053.017-.112.038-.132.056-.053 5.32-.053 5.374 0 .05.047.05.217 0 .264-.054.053-5.318.053-5.374 0zm1.377-1.189c-.074-.08-.066-.208.019-.265.061-.043.303-.048 1.99-.048 1.821 0 1.924.003 1.975.056.068.074.066.198-.006.262-.053.046-.237.051-1.991.051-1.833 0-1.937-.003-1.987-.056zM6.641 5.87c-.086-.06-.059-.24.044-.289.105-.051 1.146-.055 1.246-.004.13.066.157.196.059.283-.05.044-.146.05-.676.05-.456 0-.633-.01-.673-.039zM5.29 2.027H3.442V.24a.165.165 0 0 0-.168-.163H2.265a.165.165 0 0 0-.168.163v1.787H.25a.165.165 0 0 0-.168.162v.975c0 .09.075.163.168.163h1.848v1.787c0 .09.076.163.168.163h1.009a.165.165 0 0 0 .168-.163V3.327H5.29a.165.165 0 0 0 .169-.163V2.19a.165.165 0 0 0-.169-.162z"/></svg>