<svg xmlns="http://www.w3.org/2000/svg" xmlns:xlink="http://www.w3.org/1999/xlink" viewBox="0 0 16 16"><defs><clipPath id="b"/><clipPath id="c"/><clipPath id="d"><use xlink:href="#a" width="100%" height="100%"/></clipPath><clipPath id="e"/></defs><path d="M16.02 14.074v-1.51l-.072.068-.073.068-5.501-.008-5.502-.008 1.887-1.837 1.886-1.836 1.084-.001 1.083-.002.022-.488c.027-.624.035-.662.164-.81l.107-.125 1.844-.01c1.015-.005 1.856-.02 1.87-.034.014-.014-.03-.126-.096-.249-.293-.537-.807-1.451-1.152-2.05l-.374-.65.33-.326c.181-.18.335-.32.342-.313.006.008.39.684.852 1.503l1.07 1.893.228.403.009-3.738c.005-2.056.012-.294.016 3.916s0 7.654-.008 7.654c-.009 0-.016-.68-.016-1.51zM.976 15.414c-.334-.117-.523-.55-.4-.918.03-.087 1.574-1.608 7.023-6.917 3.842-3.744 7.03-6.831 7.085-6.86.186-.103.5-.051.673.11.181.166.26.479.187.742-.038.138-.378.476-6.21 6.153-3.393 3.303-6.55 6.38-7.015 6.837-.698.685-.868.836-.971.865a.494.494 0 0 1-.372-.011zm-.812-2.832l-.116-.118V7.875l.63-1.07c.743-1.26 1.803-3.011 1.974-3.262.066-.097.152-.199.19-.225.063-.043.52-.048 4.314-.047h4.245l-.36.34-.36.338-3.195.01-3.194.009-.019 1.163c-.02 1.345-.022 1.353-.259 1.442-.18.068-.332.043-.467-.076-.097-.086-.102-.101-.121-.394a22.726 22.726 0 0 1-.027-.941c-.004-.35-.016-.725-.027-.834-.019-.186-.023-.194-.07-.14-.093.106-1.747 2.864-1.92 3.2l-.078.154.191.02c.105.01.94.02 1.856.02h1.664l.099.1a.71.71 0 0 1 .133.193c.019.05.043.325.053.61l.02.52.078.01c.068.007-.177.257-1.805 1.847L1.71 12.699H.28zm5.027-6.14L5.2 6.17l1.612-.008 1.613-.008-.28.28-.282.279H5.182zm7.041.134c-.171-.061-.213-.148-.235-.5l-.02-.31.443-.434.443-.434-.012.684c-.013.762-.029.825-.243.968-.116.077-.214.084-.376.026zm-7.041-.972l.009-.272 2.03-.008c1.117-.004 2.026.003 2.02.016a4.483 4.483 0 0 1-.278.28l-.269.255H5.182zm0-.9l.009-.271 2.505-.008 2.505-.008-.28.28-.282.279H5.182z"/></svg>