<svg xmlns="http://www.w3.org/2000/svg" viewBox="0 0 16 16">
  <path
    d="M5.605 14.114l-5.414-.01-.1-.124-.099-.125V7.816l.65-1.42c1.28-2.8 1.954-4.214 2.088-4.378l.095-.117 5.32-.01 5.32-.012.565 1.296 1.267 2.902L16 7.683v6.291l-.07.084-.07.085-2.42-.01c-1.33-.005-4.857-.014-7.835-.02zM10.8 8.79c.031-.84.044-.924.163-1.127l.105-.177h1.074c.591 0 1.43-.012 1.864-.026.675-.022.79-.034.79-.084 0-.086-.248-.668-1.544-3.627-.183-.417-.35-.802-.37-.854-.032-.079-.04.12-.04 1.168-.003 1.302-.031 1.908-.096 2.008-.104.163-.373.221-.531.115-.175-.117-.192-.174-.219-.751a30.198 30.198 0 0 1-.027-1.102c0-.31-.01-.788-.02-1.06l-.02-.497H4.234l-.002.205c-.005.857-.06 2.834-.082 2.929-.074.332-.505.395-.71.103-.066-.095-.105-.746-.108-1.797-.001-.713-.027-1.167-.065-1.167-.034 0-.145.228-1.008 2.09-.856 1.847-1.03 2.248-.994 2.295.014.018.853.038 1.864.045l1.84.013.07.104c.163.237.166.25.198 1.022l.03.737 2.756-.01 2.755-.01zM5.138 6.01v-.348l1.196-.012c.657-.007 2.025-.006 3.039 0l1.843.012v.696H5.138V6.01zm0-1.092v-.35h6.078v.7H5.138zm0-1.168V3.4h6.078v.7H5.138z"/>
</svg>
