<svg xmlns="http://www.w3.org/2000/svg" viewBox="0 0 16 16">
  <path
    d="M.135 15.85l-.128-.138v-4.949l.16-.304c.872-1.647 2.534-4.647 2.596-4.685.044-.027.19-.058.324-.07l.244-.021.019-2.663C3.364.986 3.38.336 3.416.268c.121-.23-.17-.216 4.62-.216 3.74 0 4.423.009 4.51.058.217.121.212.054.223 2.94l.01 2.653h.223c.25 0 .388.054.464.18.073.12 2.37 4.533 2.464 4.735.078.165.079.2.069 2.65l-.01 2.483-.123.12-.123.118H.263zm10.614-4.404c0-.608.036-.781.192-.923l.114-.104h1.857c1.167 0 1.856-.014 1.856-.04 0-.062-1.913-3.719-1.954-3.734-.023-.009-.037.383-.037 1.077 0 .6-.011 1.161-.024 1.246-.029.188-.188.373-.351.408-.139.03-.325-.046-.432-.175-.074-.09-.076-.164-.094-4.142l-.019-4.051-3.802-.01L4.252.986l-.01 4.042c-.01 4.032-.01 4.043-.088 4.157-.166.243-.498.256-.695.03l-.09-.104-.011-1.24c-.008-.88-.023-1.235-.053-1.225-.034.013-1.992 3.57-2.048 3.721-.015.04.369.051 1.842.051h1.86l.115.104c.155.142.191.314.191.922v.519h5.484v-.519zM4.822 7.93c-.025-.027-.045-.105-.045-.175 0-.07.02-.148.045-.175.066-.07 6.305-.07 6.37 0 .058.063.058.287 0 .35-.065.07-6.304.07-6.37 0zm.039-1.478c-.11-.083-.117-.321-.011-.383.1-.058 6.214-.058 6.315 0 .105.062.099.3-.011.383-.127.096-6.167.096-6.293 0zm-.039-1.652c-.025-.027-.045-.106-.045-.175 0-.07.02-.148.045-.175.066-.07 6.305-.07 6.37 0 .058.063.058.287 0 .35-.065.07-6.304.07-6.37 0zm1.632-1.57c-.088-.107-.078-.275.022-.351.073-.056.36-.063 2.36-.063 2.158 0 2.28.004 2.34.074.081.098.078.262-.007.346-.063.061-.281.068-2.36.068-2.173 0-2.296-.004-2.355-.075zm-1.616-.752c-.101-.08-.069-.317.052-.382.125-.068 1.359-.073 1.477-.006.155.088.187.259.07.374-.06.058-.173.067-.801.067-.54 0-.75-.014-.798-.052z"/>
</svg>
