<svg xmlns="http://www.w3.org/2000/svg" viewBox="0 0 32 32"><path d="M30.314 16.935c.856 0 1.544.84 1.544 1.885 0 1.046-.688 1.885-1.545 1.885h-.18l-1.39 9.747c-.132.898-.772 1.56-1.52 1.56h-15.45c-.749 0-1.388-.662-1.521-1.56l-1.388-9.747h-.181c-.857 0-1.545-.84-1.545-1.885 0-1.046.688-1.885 1.545-1.885zm-17.322 11.78c.422-.045.748-.5.712-1.016l-.386-6.126c-.036-.515-.41-.912-.833-.868-.422.044-.748.5-.712 1.016l.386 6.125c.036.486.374.869.772.869zm4.96-.943v-6.125c0-.515-.35-.942-.772-.942-.422 0-.773.427-.773.942v6.125c0 .516.35.943.773.943.423 0 .773-.427.773-.943zm4.636 0v-6.125c0-.515-.35-.942-.773-.942-.422 0-.772.427-.772.942v6.125c0 .516.35.943.772.943.423 0 .773-.427.773-.943zm4.249.074l.386-6.125c.036-.516-.29-.972-.712-1.016-.423-.044-.797.353-.833.868l-.386 6.126c-.037.515.29.971.712 1.016h.06c.399 0 .737-.383.773-.869zM12.883 9.926l-1.122 6.067h-1.594l1.22-6.494c.313-1.722 1.557-2.93 3.005-2.93h2.016c0-.515.35-.942.773-.942h4.634c.423 0 .773.427.773.942h2.016c1.448 0 2.692 1.208 3.006 2.93l1.219 6.494h-1.594l-1.122-6.066c-.17-.87-.785-1.473-1.51-1.473h-2.015c0 .515-.35.942-.773.942h-4.634c-.423 0-.773-.426-.773-.942h-2.016c-.724 0-1.34.604-1.509 1.473zM2.28.11l2.806 3.237L7.878.124a.327.327 0 0 1 .51.002l1.53 1.766c.14.162.141.425 0 .587L7.127 5.7 9.932 8.94c.14.162.141.425.001.587l-1.524 1.758a.327.327 0 0 1-.509-.001L5.094 8.046l-2.793 3.222a.327.327 0 0 1-.509-.001L.262 9.5a.462.462 0 0 1-.002-.587L3.053 5.69.247 2.453a.462.462 0 0 1 0-.587L1.77.108a.327.327 0 0 1 .509.002z"/></svg>