<?xml version="1.0" encoding="UTF-8" standalone="no"?>
<!-- Created with Inkscape (http://www.inkscape.org/) -->

<svg
   xmlns:dc="http://purl.org/dc/elements/1.1/"
   xmlns:cc="http://creativecommons.org/ns#"
   xmlns:rdf="http://www.w3.org/1999/02/22-rdf-syntax-ns#"
   xmlns:svg="http://www.w3.org/2000/svg"
   xmlns="http://www.w3.org/2000/svg"
   xmlns:sodipodi="http://sodipodi.sourceforge.net/DTD/sodipodi-0.dtd"
   xmlns:inkscape="http://www.inkscape.org/namespaces/inkscape"
   
   
   viewBox="0 0 16 16"
   version="1.1"
   id="SVGRoot"
   inkscape:version="0.92.2 (5c3e80d, 2017-08-06)"
   sodipodi:docname="wb-add.svg">
  <sodipodi:namedview
     id="base"
     pagecolor="#ffffff"
     bordercolor="#666666"
     borderopacity="1.0"
     inkscape:pageopacity="0.0"
     inkscape:pageshadow="2"
     inkscape:zoom="22.627417"
     inkscape:cx="15.742156"
     inkscape:cy="7.3562861"
     inkscape:document-units="px"
     inkscape:current-layer="layer1"
     showgrid="false"
     inkscape:window-width="2419"
     inkscape:window-height="1414"
     inkscape:window-x="2692"
     inkscape:window-y="-9"
     inkscape:window-maximized="1"
     inkscape:grid-bbox="true" />
  <defs
     id="defs2298" />
  <metadata
     id="metadata2301">
    <rdf:RDF>
      <cc:Work
         rdf:about="">
        <dc:format>image/svg+xml</dc:format>
        <dc:type
           rdf:resource="http://purl.org/dc/dcmitype/StillImage" />
        <dc:title></dc:title>
      </cc:Work>
    </rdf:RDF>
  </metadata>
  <g
     id="layer1"
     inkscape:groupmode="layer"
     inkscape:label="Layer 1">
    <path
       inkscape:connector-curvature="0"
       d="M 2.6728251,15.988396 2.5648339,15.883964 v -3.745116 l 0.134989,-0.23005 C 3.4355129,10.662444 4.8377113,8.3922173 4.8900195,8.3634611 4.9271414,8.343029 5.0503189,8.31957 5.1633722,8.3104891 L 5.3692305,8.2945975 5.3852607,6.279393 C 5.3970726,4.7401794 5.4105709,4.2482969 5.4409438,4.1968385 5.5430287,4.0227878 5.297518,4.0333821 9.338751,4.0333821 c 3.155368,0 3.731603,0.00681 3.805002,0.043891 0.18308,0.091566 0.178861,0.040864 0.188141,2.2248221 l 0.0084,2.007637 h 0.188141 c 0.21092,0 0.327349,0.040864 0.391469,0.1362136 0.06159,0.090809 1.999524,3.4303122 2.078831,3.5831752 0.0658,0.124862 0.06665,0.151348 0.05822,2.005367 l -0.0084,1.878991 -0.103773,0.09081 -0.103772,0.08929 H 2.7808163 Z m 8.9548339,-3.332692 c 0,-0.4601 0.03037,-0.591017 0.161986,-0.698474 l 0.09618,-0.0787 h 1.566717 c 0.984576,0 1.565872,-0.01063 1.565872,-0.03027 0,-0.04692 -1.613963,-2.8143247 -1.648553,-2.8256757 -0.01941,-0.00681 -0.03122,0.2898322 -0.03122,0.815011 0,0.4540457 -0.0092,0.8785777 -0.02025,0.9429007 -0.02447,0.142268 -0.158613,0.282265 -0.296133,0.308751 -0.117271,0.02271 -0.274196,-0.03481 -0.36447,-0.132429 -0.06243,-0.06811 -0.06412,-0.124107 -0.07931,-3.134427 l -0.01603,-3.0655627 -3.2076755,-0.00757 -3.2085203,-0.00908 -0.00843,3.0587519 c -0.00843,3.0511848 -0.00843,3.0595088 -0.074244,3.1457778 -0.1400512,0.183889 -0.4201534,0.193726 -0.5863586,0.02271 l -0.075932,-0.0787 -0.00928,-0.9383619 c -0.00674,-0.6659343 -0.019398,-0.9345776 -0.04471,-0.9270103 -0.028685,0.00983 -1.6806131,2.7015692 -1.7278593,2.8158372 -0.012655,0.03027 0.3113185,0.03859 1.5540609,0.03859 h 1.5692472 l 0.097023,0.0787 c 0.1307705,0.10746 0.161143,0.237616 0.161143,0.697715 v 0.39275 H 11.627659 V 12.654189 Z M 6.6271593,9.9949976 c -0.021092,-0.020426 -0.037965,-0.079458 -0.037965,-0.1324308 0,-0.052968 0.016873,-0.1119978 0.037965,-0.1324297 0.055683,-0.052968 5.3194107,-0.052968 5.3742497,0 0.04893,0.047673 0.04893,0.2171857 0,0.2648605 -0.05484,0.052968 -5.3185668,0.052968 -5.3742497,0 z M 6.660063,8.8765323 C 6.5672579,8.8137224 6.561352,8.633618 6.6507877,8.5867 c 0.084368,-0.043891 5.2426353,-0.043891 5.3278473,0 0.08858,0.046918 0.08352,0.2270226 -0.0092,0.2898323 -0.107145,0.072647 -5.2029828,0.072647 -5.3092866,0 z M 6.6271593,7.6263941 c -0.021092,-0.020432 -0.037965,-0.080215 -0.037965,-0.1324298 0,-0.052972 0.016873,-0.1119979 0.037965,-0.1324299 0.055683,-0.052972 5.3194107,-0.052972 5.3742497,0 0.04893,0.047675 0.04893,0.217185 0,0.2648597 -0.05484,0.052972 -5.3185668,0.052972 -5.3742497,0 z M 8.0040472,6.4383088 c -0.074244,-0.080971 -0.065807,-0.208104 0.018561,-0.2656164 0.061589,-0.042378 0.3037253,-0.047675 1.9910878,-0.047675 1.820665,0 1.923593,0.00303 1.974214,0.055999 0.06834,0.074161 0.06581,0.1982664 -0.0059,0.2618328 -0.05316,0.046162 -0.237074,0.051459 -1.9910869,0.051459 -1.8333198,0 -1.9370927,-0.00303 -1.9868698,-0.056755 z M 6.6406582,5.8692387 c -0.085212,-0.060539 -0.058214,-0.2398873 0.043871,-0.2890755 0.1054601,-0.051459 1.146563,-0.055242 1.2461173,-0.00454 0.1307706,0.066594 0.1577684,0.1959963 0.059058,0.2830216 -0.05062,0.043891 -0.1459569,0.050702 -0.6757887,0.050702 -0.455588,0 -0.632761,-0.010591 -0.6732577,-0.039351 z"
       id="path1163"
       />
    <path
       inkscape:connector-curvature="0"
       d="M 5.2904719,2.0269155 H 3.4417854 V 0.23956018 c 0,-0.0897337 -0.07525,-0.16248703 -0.1680624,-0.16248703 H 2.2653493 c -0.092812,0 -0.1680624,0.07275326 -0.1680624,0.16248703 V 2.0269155 H 0.24860074 c -0.0928128,0 -0.1680625,0.072754 -0.1680625,0.162487 v 0.9749212 c 0,0.089734 0.07524963,0.1624865 0.1680625,0.1624865 H 2.0972869 v 1.7873562 c 0,0.089734 0.07525,0.1624866 0.1680624,0.1624866 H 3.273723 c 0.092812,0 0.1680624,-0.072753 0.1680624,-0.1624866 V 3.3268102 h 1.8486865 c 0.092812,0 0.1680616,-0.072753 0.1680616,-0.1624865 V 2.1894025 c 0,-0.089733 -0.07525,-0.162487 -0.1680616,-0.162487 z"
       id="path5"
        />
  </g>
</svg>
