<svg xmlns="http://www.w3.org/2000/svg" viewBox="0 0 16 16"><path d="M.157 15.852l-.128-.137v-4.892l.16-.3c.87-1.629 2.53-4.594 2.593-4.632.043-.026.189-.057.323-.068l.244-.021.018-2.632c.015-2.01.03-2.653.066-2.72.121-.227-.168-.214 4.614-.214 3.736 0 4.416.009 4.504.057.216.12.211.054.222 2.907l.01 2.622h.223c.25 0 .388.053.464.177.072.119 2.365 4.482 2.46 4.681.078.163.079.197.069 2.62l-.01 2.454-.123.117-.122.118H.284zm10.6-4.354c0-.601.036-.772.19-.912l.115-.103h1.854c1.166 0 1.854-.014 1.854-.038 0-.063-1.91-3.677-1.952-3.692-.023-.009-.036.378-.037 1.065 0 .593-.01 1.147-.024 1.231-.028.185-.188.369-.35.404-.139.03-.325-.046-.432-.174-.073-.088-.075-.161-.093-4.094l-.02-4.005-3.796-.01-3.797-.01-.01 3.996c-.01 3.985-.01 3.996-.089 4.109-.166.24-.497.253-.694.028l-.09-.102-.01-1.225c-.009-.87-.024-1.221-.053-1.21-.035.012-1.99 3.527-2.045 3.677-.015.04.368.05 1.839.05h1.857l.115.103c.155.14.19.31.191.912v.512h5.476v-.512zm-5.92-3.474c-.024-.027-.044-.104-.044-.173 0-.068.02-.146.045-.173.065-.07 6.296-.07 6.36 0 .059.063.059.284 0 .346-.064.07-6.295.07-6.36 0zm.04-1.461c-.11-.082-.117-.318-.012-.378.1-.058 6.206-.058 6.306 0 .106.06.1.296-.01.378-.127.095-6.158.095-6.285 0zm-.04-1.633c-.024-.027-.044-.105-.044-.173 0-.069.02-.146.045-.173.065-.07 6.296-.07 6.36 0 .059.062.059.283 0 .346-.064.07-6.295.07-6.36 0zm1.63-1.553c-.088-.104-.078-.27.022-.346.073-.055.36-.062 2.357-.062 2.155 0 2.277.004 2.336.073.082.097.079.26-.007.342-.062.06-.28.067-2.357.067-2.17 0-2.292-.004-2.35-.074zm-1.614-.742c-.1-.079-.068-.313.052-.378.125-.067 1.357-.072 1.475-.006.155.088.187.256.07.37-.06.057-.173.066-.8.066-.538 0-.748-.013-.797-.052z"/><path fill="none" d="M-.063.036h13.688v5.951H-.063zM14.125 4.633h2.25v.902h-2.25z"/><path fill="#fff" fill-rule="evenodd" d="M2.038.073h13.369v5.743H2.038z"/><path fill="#fff" fill-rule="evenodd" d="M11.071 4.173h.044v.219h-.044zM4.359 6.621H11.5v2.905H4.359z"/><path d="M5.16 7.084h5.733v.613H5.16zM5.164 8.042h5.733v.613H5.164zM5.159 8.954h5.733v.613H5.159zM3.605 2.452l1.277-1.125c.284-.25.284-.625 0-.875a.752.752 0 0 0-.994 0L2.611 1.577 1.334.452a.752.752 0 0 0-.993 0c-.284.25-.284.625 0 .875l1.277 1.125L.341 3.576c-.284.25-.284.625 0 .875a.75.75 0 0 0 .993 0l1.277-1.125 1.277 1.125a.75.75 0 0 0 .994 0c.284-.25.284-.625 0-.875zM4.05 5.812h7.914v.763H4.05z"/></svg>