<svg xmlns="http://www.w3.org/2000/svg" width="16" height="16">
  <path
    d="M6.108 15.89c-.088-.086-.15-.406-.193-.984l-.062-.856-.664-.327a9.303 9.303 0 0 1-1.013-.576l-.348-.248-.769.325c-.923.39-1.128.404-1.349.091-.442-.627-1.679-2.822-1.679-2.98 0-.128.207-.323.72-.678l.72-.498.048-1.144.049-1.143-.223-.193a8.167 8.167 0 0 0-.72-.51c-.273-.175-.52-.372-.548-.437-.047-.112 1.473-2.84 1.77-3.177.187-.212.379-.187 1.044.138.901.44.91.441 1.395.102.235-.164.684-.416.997-.56l.57-.259.062-.823c.034-.453.1-.892.145-.976.077-.139.245-.152 1.946-.152 1.39 0 1.885.027 1.953.107.05.059.12.482.154.94l.063.834.663.327c.365.18.82.439 1.012.575l.348.249.769-.325c.923-.39 1.128-.405 1.349-.092.443.628 1.679 2.823 1.679 2.981 0 .128-.207.323-.72.678l-.72.499-.024 1.16-.024 1.16.658.483c.38.28.68.567.709.681.038.148-.153.548-.757 1.584-.899 1.543-1 1.683-1.225 1.683-.086 0-.504-.147-.928-.326l-.771-.326-.39.295a6.852 6.852 0 0 1-1.01.586l-.621.29-.062.847c-.041.571-.104.889-.191.974-.193.188-3.62.188-3.812 0zm3.082-4.1c3.02-.797 3.91-4.723 1.544-6.797-.764-.67-1.612-.985-2.664-.99C5.713 3.995 3.945 5.7 3.95 7.979c.004 2.735 2.486 4.541 5.241 3.813zm-2.18-1.65c-.895-.395-1.395-1.172-1.394-2.163.003-1.388.976-2.338 2.397-2.338 1.42 0 2.393.95 2.396 2.338.002 1.384-.973 2.335-2.396 2.335-.428 0-.729-.052-1.004-.173z"/>
</svg>
