<svg xmlns="http://www.w3.org/2000/svg" width="16" height="16">
  <path
    d="M.167 15.869c-.08-.078-.144-.203-.144-.277 0-.129.875-1.237 1.857-2.352.258-.293 1.24-1.308 2.184-2.257L5.78 9.26 4.405 7.89c-.756-.753-1.378-1.416-1.383-1.472-.028-.342.223-.628.748-.852.505-.215 1.252-.172 1.718.099.179.104.341.189.36.189.02 0 1.078-.887 2.35-1.972l2.315-1.97-.098-.391c-.08-.316-.082-.452-.012-.707.096-.345.483-.785.691-.785.148 0 4.802 4.574 4.87 4.785.053.167-.162.462-.464.638-.243.141-.828.185-1.201.09-.224-.058-.23-.052-2.152 2.17a157.651 157.651 0 0 0-1.977 2.308c-.028.046.038.252.146.46.261.499.28 1.356.041 1.802-.241.451-.488.639-.806.613-.057-.005-.693-.59-1.414-1.302l-1.31-1.294-1.666 1.634c-.915.899-1.939 1.876-2.273 2.171-1.013.894-2.314 1.908-2.45 1.908-.07 0-.193-.064-.271-.142z"/>
</svg>
