<svg xmlns="http://www.w3.org/2000/svg" width="16" height="16">
  <path
    d="M.318 15.691a.921.921 0 0 1-.236-.494c-.04-.288.186-.752 3.647-7.474C5.76 3.781 7.504.473 7.606.37a.685.685 0 0 1 .947 0c.101.103 1.831 3.382 3.845 7.288 3.261 6.326 3.66 7.14 3.664 7.46.003.294-.035.397-.205.56l-.209.201H.51zm13.246-1.79c-.09-.246-5.447-10.563-5.485-10.563-.038 0-5.397 10.322-5.484 10.562-.014.037 2.454.068 5.485.068 3.03 0 5.498-.03 5.484-.068zm-6.123-.63c-.206-.23-.253-.346-.253-.627 0-.645.361-1.084.892-1.084.53 0 .891.439.891 1.084 0 .28-.046.396-.253.627-.222.248-.298.282-.638.282s-.417-.034-.64-.282zm.29-2.251c-.088-.069-.196-.247-.24-.396-.093-.314-.302-3.121-.302-4.061 0-.562.022-.667.187-.888.374-.497.981-.518 1.376-.048.136.16.182.325.204.724.043.772-.19 4.005-.313 4.333-.167.445-.579.597-.913.336z"
    fill="#f9cccc"/>
  <path
    d="M.486 15.749c-.244-.148-.355-.36-.354-.675.001-.156 1.241-2.64 3.704-7.417C7.21 1.106 7.56.46 7.809.32c.262-.147.279-.147.54 0 .245.138.607.807 3.973 7.336 2.455 4.763 3.703 7.262 3.704 7.417.003.32-.111.53-.368.679-.324.187-14.863.183-15.172-.004zm13.122-1.77c.059-.107-5.414-10.682-5.529-10.682-.116 0-5.588 10.572-5.529 10.68.053.096 11.005.098 11.058.002zm-5.96-.594c-.293-.2-.488-.663-.42-1.004.025-.132.147-.352.269-.49.186-.207.282-.248.583-.248.299 0 .396.041.578.244.273.305.345.672.205 1.046-.118.317-.5.62-.783.62-.103 0-.297-.076-.432-.168zm.042-2.466c-.182-.225-.257-.739-.349-2.39a87.247 87.247 0 0 0-.115-1.836c-.069-.73.232-1.26.753-1.33.331-.044.581.082.792.4.178.268.182.879.019 3.215-.125 1.795-.202 2.027-.68 2.067-.214.017-.333-.018-.42-.126z"
    fill="#f6a0a0"/>
  <path
    d="M.388 15.591c-.32-.356-.256-.616.519-2.125C6.277 3.005 7.614.467 7.81.362c.252-.136.535-.067.729.178.08.1 1.78 3.357 3.78 7.237 2.815 5.465 3.635 7.117 3.635 7.333a.702.702 0 0 1-.182.481l-.183.204H.57zm13.337-1.594c0-.03-1.245-2.476-2.767-5.436C9.238 5.217 8.148 3.18 8.08 3.18c-.07 0-1.15 2.018-2.879 5.38-1.522 2.959-2.767 5.405-2.767 5.436 0 .031 2.54.056 5.646.056 3.105 0 5.645-.024 5.645-.054zm-6.077-.612c-.293-.2-.488-.663-.42-1.004.025-.132.147-.352.269-.49.186-.207.282-.248.583-.248.299 0 .396.041.578.244.273.305.345.672.205 1.046-.118.317-.5.62-.783.62-.103 0-.297-.076-.432-.168zm.042-2.466c-.182-.225-.257-.739-.349-2.39a87.247 87.247 0 0 0-.115-1.836c-.069-.73.232-1.26.753-1.33.331-.044.581.082.792.4.178.268.182.879.019 3.215-.125 1.795-.202 2.027-.68 2.067-.214.017-.333-.018-.42-.126z"
    fill="#a0a0a0"/>
  <path
    d="M.388 15.591c-.32-.356-.256-.616.519-2.125C6.277 3.005 7.614.467 7.81.362c.252-.136.535-.067.729.178.08.1 1.78 3.357 3.78 7.237 2.815 5.465 3.635 7.117 3.635 7.333a.702.702 0 0 1-.182.481l-.183.204H.57zm13.337-1.594c0-.03-1.245-2.476-2.767-5.436C9.238 5.217 8.148 3.18 8.08 3.18c-.07 0-1.15 2.018-2.879 5.38-1.522 2.959-2.767 5.405-2.767 5.436 0 .031 2.54.056 5.646.056 3.105 0 5.645-.024 5.645-.054zM7.66 13.31c-.262-.179-.43-.621-.358-.944.026-.114.143-.31.26-.435.422-.452 1.17-.186 1.298.462.064.327-.132.792-.4.947-.297.172-.516.163-.8-.03zm.02-2.561c-.138-.299-.176-.63-.304-2.687-.074-1.183-.084-1.804-.033-2.01.208-.845 1.263-.852 1.471-.01.048.194.037.858-.032 2.01-.124 2.05-.163 2.395-.303 2.697-.089.192-.154.23-.4.23-.245 0-.31-.038-.399-.23z"
    fill="#f06060"/>
  <path
    d="M.475 15.54a.528.528 0 0 1-.195-.427c0-.184.999-2.193 3.62-7.28C5.89 3.966 7.61.702 7.72.576c.253-.29.466-.29.72 0 .11.126 1.828 3.392 3.82 7.258 2.595 5.04 3.62 7.101 3.62 7.281a.528.528 0 0 1-.196.424c-.195.171-.222.172-7.604.172-7.383 0-7.41 0-7.605-.172zm13.207-1.373c.065-.028.118-.098.118-.156 0-.123-5.46-10.74-5.615-10.919-.092-.107-.118-.107-.211 0-.16.183-5.614 10.791-5.614 10.918 0 .06.041.13.092.152.134.06 11.09.065 11.23.005zM7.66 13.31c-.262-.179-.43-.621-.358-.944.026-.114.143-.31.26-.435.422-.452 1.17-.186 1.298.462.064.327-.132.792-.4.947-.297.172-.516.163-.8-.03zm.02-2.561c-.138-.299-.176-.63-.304-2.687-.074-1.183-.084-1.804-.033-2.01.208-.845 1.263-.852 1.471-.01.048.194.037.858-.032 2.01-.124 2.05-.163 2.395-.303 2.697-.089.192-.154.23-.4.23-.245 0-.31-.038-.399-.23z"
    fill="#5f5f5f"/>
  <path
    d="M.475 15.54a.528.528 0 0 1-.195-.427c0-.184.999-2.193 3.62-7.28C5.89 3.966 7.61.702 7.72.576c.253-.29.466-.29.72 0 .11.126 1.828 3.392 3.82 7.258 2.595 5.04 3.62 7.101 3.62 7.281a.528.528 0 0 1-.196.424c-.195.171-.222.172-7.604.172-7.383 0-7.41 0-7.605-.172zm13.207-1.373c.065-.028.118-.098.118-.156 0-.123-5.46-10.74-5.615-10.919-.092-.107-.118-.107-.211 0-.16.183-5.614 10.791-5.614 10.918 0 .06.041.13.092.152.134.06 11.09.065 11.23.005zm-5.825-.836a.964.964 0 0 1-.457-.517c-.088-.258.045-.715.256-.88.186-.146.592-.164.806-.035.195.116.357.556.309.838-.07.41-.579.741-.914.594zm-.115-2.638c-.133-.226-.327-2.562-.33-3.97 0-.698.02-.833.146-.974a.67.67 0 0 1 1.04.014c.128.155.15.29.149.934-.003 1.34-.207 3.786-.333 4.002-.158.27-.512.267-.672-.006z"
    fill="#e90404"/>
  <path
    d="M7.857 13.33c-.186-.08-.385-.306-.457-.516-.088-.258.045-.715.256-.88.186-.146.592-.164.806-.035.195.116.357.556.309.838-.07.41-.579.741-.914.594zm-.115-2.637c-.133-.226-.327-2.562-.33-3.97 0-.698.02-.833.146-.974a.67.67 0 0 1 1.04.014c.128.155.15.29.149.934-.003 1.34-.207 3.786-.333 4.002-.158.27-.512.267-.672-.006z"
    fill="#060606"/>
</svg>
