<svg xmlns="http://www.w3.org/2000/svg" width="16" height="16">
  <path
    d="M12.456 15.847a.98.98 0 0 1-.3-.288c-.133-.192-.151-.323-.151-1.054v-.836l-.972.002-.972.001-.907-1.07c-1.193-1.407-1.417-1.716-1.344-1.859.033-.062.394-.52.803-1.015l.744-.902.811 1.007.812 1.006.512.005.513.004v-.892c0-.88.003-.896.206-1.128.164-.187.27-.236.509-.236.298 0 .32.02 1.737 1.629 1.507 1.71 1.626 1.903 1.435 2.332-.117.261-2.605 3.114-2.841 3.257-.213.129-.373.139-.595.037zM.2 13.508c-.128-.146-.141-.268-.14-1.27 0-.609.03-1.162.067-1.228.055-.099.33-.128 1.5-.161l1.432-.04 3.2-3.91c1.759-2.149 3.34-4.062 3.514-4.25l.316-.343H12.005v-.84c0-.783.012-.856.18-1.085.225-.303.57-.394.854-.223.244.148 2.732 2.995 2.853 3.265.19.428.072.621-1.435 2.332-1.417 1.608-1.439 1.628-1.737 1.628-.24 0-.345-.048-.509-.235-.203-.232-.206-.249-.206-1.132V5.12l-.515.024-.515.023L7.532 9.37c-1.894 2.311-3.495 4.224-3.556 4.251-.062.027-.905.05-1.874.05-1.668 0-1.77-.01-1.903-.162zm3.65-7.374l-.833-1.007H1.648C.498 5.127.262 5.107.168 5c-.09-.103-.11-.336-.11-1.249 0-1.567-.18-1.444 2.103-1.446l1.82-.001.766.908c.42.499.94 1.133 1.155 1.409l.39.501-.132.191c-.072.105-.434.56-.805 1.01l-.673.818z"/>
</svg>
